<svg xmlns="http://www.w3.org/2000/svg" width="15.494" height="10.846" viewBox="0 0 15.494 10.846">
  <path id="clanimage" d="M2.324,36.648A1.549,1.549,0,1,0,.775,35.1,1.551,1.551,0,0,0,2.324,36.648Zm10.846,0A1.549,1.549,0,1,0,11.62,35.1,1.551,1.551,0,0,0,13.17,36.648Zm.775.775H12.395a1.545,1.545,0,0,0-1.092.45,3.541,3.541,0,0,1,1.818,2.648h1.6a.774.774,0,0,0,.775-.775v-.775A1.551,1.551,0,0,0,13.944,37.423Zm-6.2,0a2.711,2.711,0,1,0-2.711-2.711A2.71,2.71,0,0,0,7.747,37.423Zm1.859.775h-.2a3.743,3.743,0,0,1-3.317,0h-.2A2.79,2.79,0,0,0,3.1,40.986v.7a1.162,1.162,0,0,0,1.162,1.162h6.972a1.162,1.162,0,0,0,1.162-1.162v-.7A2.79,2.79,0,0,0,9.606,38.2Zm-5.416-.324a1.545,1.545,0,0,0-1.092-.45H1.549A1.551,1.551,0,0,0,0,38.972v.775a.774.774,0,0,0,.775.775h1.6a3.55,3.55,0,0,1,1.821-2.648Z" transform="translate(0 -32)" fill="#fff"/>
</svg>
