<svg xmlns="http://www.w3.org/2000/svg" width="10.76" height="11.24" viewBox="0 0 10.76 11.24">
  <path id="cog-solid" d="M29.267,15.07l-.965-.557a4.365,4.365,0,0,0,0-1.591l.965-.557a.274.274,0,0,0,.125-.317A5.644,5.644,0,0,0,28.152,9.9a.273.273,0,0,0-.335-.052l-.965.557a4.277,4.277,0,0,0-1.378-.8V8.5a.272.272,0,0,0-.213-.265,5.7,5.7,0,0,0-2.475,0,.272.272,0,0,0-.213.265V9.615a4.412,4.412,0,0,0-1.378.8l-.963-.557a.269.269,0,0,0-.335.052,5.61,5.61,0,0,0-1.24,2.144.271.271,0,0,0,.125.317l.965.557a4.365,4.365,0,0,0,0,1.591l-.965.557a.274.274,0,0,0-.125.317,5.644,5.644,0,0,0,1.24,2.144.273.273,0,0,0,.335.052l.965-.557a4.277,4.277,0,0,0,1.378.8v1.115a.272.272,0,0,0,.213.265,5.7,5.7,0,0,0,2.475,0,.272.272,0,0,0,.213-.265V17.823a4.412,4.412,0,0,0,1.378-.8l.965.557a.269.269,0,0,0,.335-.052,5.61,5.61,0,0,0,1.24-2.144A.28.28,0,0,0,29.267,15.07Zm-5.244.46a1.813,1.813,0,1,1,1.813-1.813A1.815,1.815,0,0,1,24.023,15.53Z" transform="translate(-18.644 -8.099)" fill="#fff"/>
</svg>
