<svg xmlns="http://www.w3.org/2000/svg" width="12.215" height="9.309" viewBox="0 0 12.215 9.309">
  <path id="sign-out-alt-solid" d="M12.046,69.045,7.974,73.117a.583.583,0,0,1-.994-.412V70.378h-3.3A.58.58,0,0,1,3.1,69.8V67.47a.58.58,0,0,1,.582-.582h3.3V64.561a.583.583,0,0,1,.994-.412l4.072,4.072A.587.587,0,0,1,12.046,69.045ZM4.654,73v-.97a.292.292,0,0,0-.291-.291H2.327a.775.775,0,0,1-.776-.776V66.306a.775.775,0,0,1,.776-.776H4.363a.292.292,0,0,0,.291-.291v-.97a.292.292,0,0,0-.291-.291H2.327A2.327,2.327,0,0,0,0,66.306V70.96a2.327,2.327,0,0,0,2.327,2.327H4.363A.292.292,0,0,0,4.654,73Z" transform="translate(0 -63.979)" fill="#fff"/>
</svg>
