<svg xmlns="http://www.w3.org/2000/svg" width="16" height="11.2" viewBox="0 0 16 11.2">
  <path id="user-friends-solid" d="M4.8,37.6A2.8,2.8,0,1,0,2,34.8,2.8,2.8,0,0,0,4.8,37.6Zm1.92.8H6.512a3.866,3.866,0,0,1-3.425,0H2.88A2.881,2.881,0,0,0,0,41.28V42a1.2,1.2,0,0,0,1.2,1.2H8.4A1.2,1.2,0,0,0,9.6,42v-.72A2.881,2.881,0,0,0,6.72,38.4ZM12,37.6a2.4,2.4,0,1,0-2.4-2.4A2.4,2.4,0,0,0,12,37.6Zm1.2.8h-.1a3.153,3.153,0,0,1-2.21,0H10.8a2.777,2.777,0,0,0-1.393.385A3.659,3.659,0,0,1,10.4,41.28v.96c0,.055-.012.107-.015.16H14.8A1.2,1.2,0,0,0,16,41.2,2.8,2.8,0,0,0,13.2,38.4Z" transform="translate(0 -32)" fill="#fff"/>
</svg>
